<svg width="558" height="634" viewBox="0 0 558 634" fill="none" xmlns="http://www.w3.org/2000/svg">
<path d="M64.9844 634C143.144 634 206.505 570.639 206.505 492.479C206.505 414.319 143.144 350.958 64.9844 350.958C-13.1753 350.958 -76.5363 414.319 -76.5363 492.479C-76.5363 570.639 -13.1753 634 64.9844 634Z" fill="#CEC6C4"/>
<path d="M416.311 634C494.47 634 557.831 570.639 557.831 492.479C557.831 414.319 494.47 350.958 416.311 350.958C338.151 350.958 274.79 414.319 274.79 492.479C274.79 570.639 338.151 634 416.311 634Z" fill="#CEC6C4"/>
<path d="M64.5208 266.042C142.681 266.042 206.042 202.68 206.042 124.521C206.042 46.361 142.681 -17 64.5208 -17C-13.639 -17 -77 46.361 -77 124.521C-77 202.68 -13.639 266.042 64.5208 266.042Z" fill="#CEC6C4"/>
<path d="M415.847 266.042C494.007 266.042 557.368 202.68 557.368 124.521C557.368 46.361 494.007 -17 415.847 -17C337.687 -17 274.326 46.361 274.326 124.521C274.326 202.68 337.687 266.042 415.847 266.042Z" fill="#CEC6C4"/>
</svg>
