<?xml version="1.0" encoding="UTF-8"?>
<svg xmlns="http://www.w3.org/2000/svg" xmlns:xlink="http://www.w3.org/1999/xlink" viewBox="0 0 50 50" width="50px" height="50px">
<g id="surface20980732">
<path style=" stroke:none;fill-rule:nonzero;fill:rgb(71.764708%,67.843139%,63.921571%);fill-opacity:1;" d="M 6 4 C 4.90625 4 4 4.90625 4 6 L 4 44 C 4 45.09375 4.90625 46 6 46 L 44 46 C 45.09375 46 46 45.09375 46 44 L 46 6 C 46 4.90625 45.09375 4 44 4 Z M 6 6 L 44 6 L 44 44 L 6 44 Z M 34.5 14 L 34.5 21.875 C 33.894531 20.5625 32.824219 20 31.703125 20 C 29.304688 20 27 22.371094 27 27.875 C 27 32.996094 28.855469 36.3125 31.480469 36.3125 C 33.113281 36.3125 34.019531 35.464844 34.5 34.375 L 34.5 36 L 37 36 C 36.96875 35.105469 37 33.679688 37 32.625 L 37 14 Z M 13.035156 15 L 18.519531 25.5 L 13.035156 36 L 15.5 36 L 19.753906 27.871094 L 24 36 L 26.5 36 L 21 25.5 L 26.5 15 L 24 15 L 19.753906 23.128906 L 15.5 15 Z M 32.246094 22.113281 C 33.429688 22.113281 34.359375 23.523438 34.484375 25.125 C 34.519531 25.476562 34.484375 25.867188 34.484375 26.1875 L 34.484375 30.75 C 34.484375 30.75 34.457031 31.335938 34.359375 31.625 C 33.816406 33.863281 32.824219 34.261719 32.054688 34.261719 C 30.265625 34.261719 29.460938 31.140625 29.460938 27.875 C 29.460938 24.773438 30.199219 22.113281 32.246094 22.113281 Z M 32.246094 22.113281 "/>
</g>
</svg>
