<?xml version="1.0" encoding="UTF-8"?>
<svg xmlns="http://www.w3.org/2000/svg" xmlns:xlink="http://www.w3.org/1999/xlink" viewBox="0 0 50 50" width="50px" height="50px">
<g id="surface7816954">
<path style=" stroke:none;fill-rule:nonzero;fill:rgb(71.764708%,67.843139%,63.921571%);fill-opacity:1;" d="M 6 4 C 5.476562 4 4.945312 4.191406 4.570312 4.570312 C 4.191406 4.945312 4 5.476562 4 6 L 4 44 C 4 44.523438 4.191406 45.054688 4.570312 45.433594 C 4.945312 45.808594 5.476562 46 6 46 L 44 46 C 44.523438 46 45.054688 45.808594 45.433594 45.433594 C 45.808594 45.054688 46 44.523438 46 44 L 46 6 C 46 5.476562 45.808594 4.945312 45.433594 4.570312 C 45.054688 4.191406 44.523438 4 44 4 Z M 6 6 L 44 6 L 44 44 L 6 44 Z M 18.597656 14 C 17.097656 14 16 14.101562 15 14.402344 L 15 36 L 17.5 36 L 17.5 26.902344 L 18.597656 26.902344 C 20.5 26.902344 22.5 26.101562 23.699219 24.5 C 24.5 23.398438 25 22.097656 25 20.097656 C 25 18.199219 24.402344 16.597656 23.402344 15.597656 C 22.300781 14.5 20.601562 14 18.601562 14 Z M 19 15.699219 C 21.699219 15.699219 22.597656 17.699219 22.597656 19.898438 C 22.597656 22.898438 21 24.5 18.597656 24.5 C 18.199219 24.5 17.898438 24.398438 17.597656 24.398438 L 17.597656 15.898438 C 17.898438 15.800781 18.398438 15.699219 19 15.699219 Z M 31.699219 20 C 29.199219 20 27.300781 21.800781 27.300781 24.300781 C 27.300781 26 28.398438 27.398438 30.5 28.699219 C 32.199219 29.800781 32.597656 30.601562 32.597656 31.800781 C 32.597656 33.101562 31.597656 34 30.199219 34 C 29.199219 34 28.199219 33.597656 27.597656 33.199219 L 26.898438 35.199219 C 27.601562 35.699219 28.898438 36.097656 30.097656 36.097656 C 32.699219 36.097656 34.898438 34.601562 34.898438 31.5 C 34.898438 29.300781 33.5 27.898438 31.597656 26.699219 C 30 25.597656 29.597656 25 29.597656 24 C 29.597656 23 30.300781 22 31.699219 22 C 32.597656 22 33.300781 22.300781 33.898438 22.699219 L 34.597656 20.800781 C 33.898438 20.402344 33 20 31.699219 20 Z M 31.699219 20 "/>
</g>
</svg>
