<?xml version="1.0" encoding="UTF-8"?>
<svg xmlns="http://www.w3.org/2000/svg" xmlns:xlink="http://www.w3.org/1999/xlink" viewBox="0 0 50 50" width="50px" height="50px">
<g id="surface7806962">
<path style=" stroke:none;fill-rule:nonzero;fill:rgb(71.764708%,67.843139%,63.921571%);fill-opacity:1;" d="M 18.5 2 C 13.816406 2 10 5.816406 10 10.5 C 10 13.800781 11.949219 16.59375 14.707031 18 C 11.949219 19.40625 10 22.199219 10 25.5 C 10 28.800781 11.949219 31.59375 14.707031 33 C 11.949219 34.40625 10 37.199219 10 40.5 C 10 45.183594 13.816406 49 18.5 49 C 23.183594 49 27 45.183594 27 40.5 L 27 29.65625 C 28.339844 32.203125 30.933594 34 34 34 C 38.40625 34 42 30.40625 42 26 C 42 22.378906 39.527344 19.429688 36.214844 18.449219 C 39.554688 17.300781 42 14.21875 42 10.5 C 42 5.816406 38.183594 2 33.5 2 Z M 18.5 4 L 25 4 L 25 17 L 18.5 17 C 14.898438 17 12 14.101562 12 10.5 C 12 6.898438 14.898438 4 18.5 4 Z M 27 4 L 33.5 4 C 37.101562 4 40 6.898438 40 10.5 C 40 14.101562 37.101562 17 33.5 17 L 27 17 Z M 18.5 19 L 25 19 L 25 32 L 18.5 32 C 14.898438 32 12 29.101562 12 25.5 C 12 21.898438 14.898438 19 18.5 19 Z M 27 19 L 30.34375 19 C 28.910156 19.757812 27.757812 20.910156 27 22.34375 Z M 34 20 C 37.324219 20 40 22.675781 40 26 C 40 29.324219 37.324219 32 34 32 C 30.675781 32 28 29.324219 28 26 C 28 22.675781 30.675781 20 34 20 Z M 18.5 34 L 25 34 L 25 40.5 C 25 44.101562 22.101562 47 18.5 47 C 14.898438 47 12 44.101562 12 40.5 C 12 36.898438 14.898438 34 18.5 34 Z M 18.5 34 "/>
</g>
</svg>
